<?xml version="1.0" ?><!DOCTYPE svg  PUBLIC '-//W3C//DTD SVG 1.1//EN'  'http://www.w3.org/Graphics/SVG/1.1/DTD/svg11.dtd'><svg height="256px" id="tickets" style="enable-background:new 0 0 256 256;" version="1.1" viewBox="0 0 256 256" width="256px" xml:space="preserve" xmlns="http://www.w3.org/2000/svg" xmlns:xlink="http://www.w3.org/1999/xlink"><g><g><linearGradient gradientTransform="matrix(1 0 0 -1 -178 -11)" gradientUnits="userSpaceOnUse" id="SVGID_1_" x1="297.1377" x2="297.1377" y1="-20.2715" y2="-222.5448"><stop offset="0" style="stop-color:#A9E050"/><stop offset="1" style="stop-color:#96D437"/></linearGradient><path d="M236.255,77.717l-14.739-19.37c-9.062,3.42-19.65,0.685-25.813-7.416    c-6.164-8.103-5.976-19.039-0.263-26.86L180.05,3.848c-3.257-4.281-9.425-5.12-13.706-1.861l-22.262,16.938    c0.277,0.149,0.529,0.356,0.732,0.623c0.771,1.014,0.576,2.462-0.439,3.233c-1.014,0.771-2.46,0.575-3.23-0.439    c-0.201-0.268-0.334-0.565-0.405-0.872L3.883,125.592c-4.281,3.258-5.12,9.428-1.863,13.707l15.388,20.229    c9.062-3.422,19.651-0.69,25.815,7.414c6.166,8.104,5.977,19.041,0.263,26.856l14.739,19.375c3.257,4.281,9.427,5.118,13.71,1.862    l136.92-104.179c-0.342-0.153-0.652-0.379-0.897-0.7c-0.772-1.014-0.576-2.461,0.437-3.232c1.017-0.771,2.465-0.576,3.233,0.439    c0.244,0.319,0.381,0.682,0.437,1.052l22.33-16.989C238.674,88.168,239.512,82,236.255,77.717z M149.126,29.022    c-1.017,0.771-2.459,0.574-3.233-0.439c-0.77-1.013-0.572-2.461,0.44-3.231c1.013-0.771,2.461-0.577,3.233,0.437    C150.336,26.804,150.139,28.251,149.126,29.022z M153.873,35.264c-1.014,0.772-2.459,0.577-3.229-0.438    c-0.773-1.016-0.576-2.461,0.438-3.232c1.014-0.771,2.46-0.577,3.232,0.438C155.087,33.047,154.889,34.494,153.873,35.264z     M158.626,41.508c-1.017,0.77-2.462,0.575-3.233-0.441c-0.771-1.013-0.578-2.461,0.438-3.232c1.015-0.771,2.462-0.575,3.229,0.438    C159.834,39.288,159.637,40.735,158.626,41.508z M163.373,47.75c-1.014,0.771-2.465,0.574-3.232-0.441    c-0.771-1.013-0.574-2.461,0.442-3.232c1.009-0.771,2.459-0.573,3.231,0.439C164.582,45.53,164.389,46.978,163.373,47.75z     M168.123,53.992c-1.016,0.77-2.462,0.572-3.23-0.439c-0.771-1.016-0.576-2.464,0.439-3.234c1.012-0.77,2.458-0.576,3.229,0.438    C169.334,51.771,169.139,53.221,168.123,53.992z M173.327,60.833c-1.015,0.771-2.461,0.575-3.231-0.438    c-0.771-1.016-0.574-2.464,0.44-3.235c1.014-0.77,2.459-0.575,3.231,0.44C174.538,58.613,174.343,60.062,173.327,60.833z     M178.078,67.076c-1.018,0.77-2.463,0.573-3.232-0.439c-0.771-1.015-0.572-2.461,0.441-3.232c1.01-0.771,2.458-0.576,3.23,0.438    C179.287,64.855,179.094,66.303,178.078,67.076z M182.828,73.318c-1.016,0.769-2.463,0.573-3.23-0.439    c-0.771-1.015-0.576-2.462,0.438-3.233c1.007-0.771,2.457-0.575,3.233,0.438C184.038,71.099,183.841,72.547,182.828,73.318z     M187.578,79.559c-1.016,0.771-2.463,0.576-3.232-0.438c-0.772-1.015-0.574-2.462,0.437-3.233c1.016-0.77,2.461-0.573,3.235,0.44    C188.788,77.34,188.59,78.789,187.578,79.559z M192.326,85.801c-1.012,0.773-2.461,0.575-3.234-0.438    c-0.771-1.015-0.576-2.463,0.442-3.233c1.012-0.77,2.457-0.575,3.229,0.439C193.535,83.582,193.337,85.03,192.326,85.801z     M197.076,92.043c-1.016,0.771-2.465,0.575-3.23-0.439c-0.772-1.011-0.578-2.459,0.437-3.231c1.013-0.771,2.463-0.575,3.231,0.439    C198.285,89.826,198.09,91.273,197.076,92.043z M201.689,98.112c-1.01,0.77-2.459,0.575-3.231-0.44    c-0.769-1.014-0.575-2.461,0.438-3.231c1.015-0.772,2.463-0.577,3.236,0.438C202.9,95.892,202.703,97.34,201.689,98.112z     M206.439,104.353c-1.017,0.773-2.459,0.576-3.232-0.439c-0.771-1.011-0.576-2.459,0.439-3.231    c1.014-0.771,2.461-0.576,3.229,0.438C207.65,102.136,207.455,103.582,206.439,104.353z" style="fill:url(#SVGID_1_);"/><path d="M43.223,162.91c-6.164-8.104-16.754-10.835-25.815-7.414    L2.02,135.27c-0.903-1.188-1.48-2.521-1.768-3.898c-0.562,2.684-0.014,5.588,1.768,7.929l15.388,20.228    c9.062-3.422,19.651-0.689,25.815,7.414c2.653,3.486,4.122,7.496,4.488,11.555C48.19,173.116,46.753,167.549,43.223,162.91z     M207.957,110.156c-0.57-0.748-0.607-1.732-0.186-2.506L71.935,211.006c-4.283,3.256-10.453,2.419-13.71-1.863L44.88,191.602    c-0.425,0.754-0.88,1.49-1.395,2.196l14.739,19.375c3.257,4.281,9.427,5.118,13.71,1.862l136.919-104.179    C208.514,110.703,208.202,110.478,207.957,110.156z M208.701,106.735c0.982-0.53,2.23-0.289,2.926,0.628    c0.244,0.319,0.381,0.682,0.436,1.052l22.332-16.989c3.092-2.353,4.377-6.226,3.629-9.81c-0.465,2.228-1.688,4.303-3.629,5.78    l-22.332,16.989L208.701,106.735z" style="opacity:0.2;fill:#2C2C2C;enable-background:new    ;"/><path d="M180.258,99.573c1.629,2.139,1.208,5.225-0.935,6.853l-94.43,71.852    c-2.142,1.63-5.227,1.209-6.855-0.935L45.075,134.02c-1.629-2.141-1.209-5.226,0.932-6.854l94.435-71.849    c2.139-1.629,5.226-1.209,6.854,0.93L180.258,99.573z" style="fill:#FFFFFF;"/><g style="enable-background:new    ;"><path d="M83.726,131.916l-4.174,3.299l10.423,13.185c0.6,0.76,0.87,1.463,0.808,2.108     c-0.063,0.645-0.372,1.188-0.93,1.63c-0.567,0.448-1.175,0.628-1.825,0.537c-0.65-0.089-1.271-0.509-1.866-1.261l-10.423-13.185     l-4.173,3.299c-0.653,0.517-1.248,0.761-1.784,0.736c-0.535-0.024-0.983-0.265-1.342-0.72c-0.372-0.47-0.5-0.972-0.385-1.505     c0.115-0.534,0.486-1.049,1.113-1.545l12.161-9.612c0.661-0.523,1.264-0.771,1.808-0.745c0.543,0.026,0.995,0.267,1.354,0.72     c0.359,0.455,0.485,0.949,0.376,1.482C84.758,130.874,84.378,131.399,83.726,131.916z" style="fill:#2C330D;"/><path d="M89.224,127.75c-0.489,0.387-1.022,0.575-1.598,0.561c-0.576-0.014-1.073-0.286-1.491-0.813     c-0.378-0.479-0.512-1.014-0.4-1.605s0.403-1.074,0.876-1.448c0.455-0.359,0.97-0.537,1.544-0.535s1.073,0.272,1.497,0.808     c0.411,0.52,0.561,1.062,0.448,1.626C89.988,126.908,89.696,127.377,89.224,127.75z M93.723,129.866l7.722,9.768     c0.535,0.677,0.772,1.321,0.712,1.933s-0.349,1.121-0.864,1.528s-1.075,0.561-1.677,0.46c-0.603-0.1-1.165-0.48-1.688-1.141     l-7.643-9.668c-0.529-0.669-0.766-1.299-0.711-1.893c0.054-0.594,0.339-1.094,0.854-1.501s1.074-0.574,1.677-0.5     C92.707,128.927,93.247,129.264,93.723,129.866z" style="fill:#2C330D;"/><path d="M116.005,124.665c0.333,0.421,0.557,0.975,0.673,1.659c0.117,0.687,0.078,1.458-0.116,2.315     c-0.194,0.857-0.595,1.741-1.201,2.65c-0.608,0.909-1.422,1.769-2.444,2.576c-2.173,1.718-4.351,2.449-6.532,2.195     c-2.182-0.253-4.082-1.403-5.7-3.45c-1.096-1.387-1.786-2.832-2.07-4.339c-0.282-1.505-0.126-2.966,0.47-4.384     c0.597-1.416,1.629-2.705,3.098-3.866c0.91-0.72,1.846-1.252,2.809-1.597c0.962-0.345,1.867-0.524,2.715-0.537     s1.592,0.099,2.234,0.337c0.641,0.237,1.118,0.554,1.431,0.95c0.32,0.404,0.434,0.871,0.342,1.399     c-0.092,0.529-0.361,0.969-0.808,1.322c-0.292,0.231-0.591,0.35-0.899,0.358c-0.307,0.009-0.708-0.054-1.203-0.185     c-0.926-0.288-1.747-0.403-2.462-0.347c-0.716,0.056-1.434,0.37-2.156,0.94c-1.039,0.822-1.568,1.874-1.587,3.156     c-0.02,1.283,0.506,2.6,1.576,3.953c0.503,0.636,1.046,1.155,1.63,1.559c0.584,0.403,1.179,0.671,1.784,0.802     c0.607,0.131,1.205,0.12,1.796-0.032c0.592-0.151,1.149-0.435,1.673-0.849c0.704-0.557,1.184-1.19,1.438-1.902     c0.255-0.71,0.32-1.54,0.198-2.489c-0.086-0.549-0.089-1.03-0.009-1.441s0.299-0.76,0.66-1.045     c0.429-0.339,0.91-0.464,1.441-0.375C115.319,124.088,115.725,124.31,116.005,124.665z" style="fill:#2C330D;"/><path d="M128.91,118.747l-6.98-2.448l-0.536,3.241l2.124,2.687c0.515,0.651,0.733,1.293,0.654,1.927     c-0.079,0.632-0.351,1.132-0.814,1.499c-0.541,0.428-1.103,0.59-1.687,0.488c-0.583-0.102-1.143-0.492-1.678-1.168l-11.392-14.41     c-0.593-0.751-0.895-1.441-0.905-2.07c-0.009-0.629,0.265-1.166,0.823-1.607c0.541-0.428,1.111-0.589,1.709-0.486     c0.598,0.104,1.172,0.503,1.72,1.196l6.479,8.195l0.803-7.112c0.098-0.882,0.204-1.517,0.318-1.902s0.355-0.724,0.725-1.016     c0.438-0.346,0.909-0.5,1.414-0.462c0.503,0.037,0.916,0.258,1.235,0.663c0.392,0.494,0.437,1.532,0.136,3.111l-0.565,3.123     l7.913,2.596c0.585,0.194,1.02,0.349,1.302,0.468c0.283,0.12,0.499,0.274,0.649,0.463c0.424,0.536,0.605,1.08,0.545,1.63     c-0.06,0.551-0.339,1.023-0.837,1.417c-0.43,0.34-0.848,0.49-1.256,0.45C130.402,119.177,129.769,119.021,128.91,118.747z" style="fill:#2C330D;"/><path d="M140.532,102.257l-6.879,5.438c0.615,0.761,1.312,1.31,2.088,1.648     c0.777,0.338,1.543,0.45,2.297,0.337c0.755-0.114,1.445-0.418,2.072-0.914c0.421-0.333,0.768-0.685,1.04-1.054     c0.273-0.37,0.493-0.784,0.659-1.245c0.167-0.46,0.296-0.915,0.388-1.363c0.093-0.448,0.201-1.043,0.326-1.786     c0.063-0.291,0.262-0.569,0.597-0.833c0.36-0.285,0.728-0.421,1.101-0.407c0.374,0.013,0.697,0.193,0.971,0.539     c0.242,0.306,0.399,0.762,0.474,1.367c0.073,0.605,0.008,1.295-0.197,2.067c-0.206,0.773-0.591,1.583-1.155,2.432     c-0.564,0.849-1.34,1.664-2.327,2.444c-2.259,1.785-4.504,2.555-6.737,2.307c-2.232-0.247-4.187-1.43-5.863-3.551     c-0.79-0.999-1.368-2.048-1.734-3.146c-0.366-1.099-0.494-2.188-0.385-3.267c0.109-1.08,0.469-2.125,1.079-3.138     c0.61-1.011,1.443-1.934,2.5-2.769c1.373-1.086,2.772-1.74,4.196-1.959c1.424-0.221,2.729-0.083,3.917,0.414     c1.188,0.496,2.144,1.202,2.868,2.119c0.672,0.85,0.854,1.601,0.546,2.253C142.064,100.843,141.451,101.531,140.532,102.257z      M132.137,105.776l6.376-5.041c-0.999-1.087-2.006-1.695-3.022-1.824c-1.016-0.129-1.983,0.17-2.902,0.896     c-0.876,0.693-1.365,1.551-1.468,2.578C131.018,103.412,131.356,104.542,132.137,105.776z" style="fill:#2C330D;"/><path d="M140.734,90.068l0.386-0.305l-1.604-2.03c-0.431-0.544-0.754-0.983-0.968-1.317     c-0.215-0.333-0.342-0.665-0.381-0.997c-0.045-0.339,0.005-0.684,0.148-1.032c0.143-0.347,0.373-0.648,0.691-0.899     c0.446-0.353,0.977-0.511,1.592-0.475c0.411,0.026,0.771,0.166,1.079,0.425c0.31,0.258,0.688,0.672,1.14,1.243l1.819,2.302     l1.289-1.018c0.497-0.394,0.967-0.581,1.409-0.561c0.441,0.021,0.802,0.208,1.082,0.563c0.359,0.454,0.424,0.919,0.193,1.396     s-0.692,0.99-1.388,1.54l-0.657,0.52l4.913,6.215c0.418,0.528,0.758,0.919,1.021,1.173c0.265,0.255,0.55,0.404,0.857,0.449     c0.309,0.045,0.65-0.081,1.028-0.38c0.206-0.163,0.458-0.419,0.754-0.768c0.297-0.349,0.544-0.6,0.742-0.756     c0.283-0.224,0.625-0.317,1.025-0.279c0.4,0.039,0.729,0.22,0.982,0.541c0.431,0.545,0.451,1.206,0.061,1.984     c-0.39,0.777-1.164,1.625-2.323,2.542c-1.1,0.869-2.073,1.35-2.92,1.442c-0.848,0.094-1.607-0.104-2.279-0.592     c-0.672-0.489-1.422-1.256-2.251-2.304l-5.128-6.487l-0.464,0.366c-0.507,0.401-0.984,0.591-1.434,0.57     c-0.448-0.02-0.813-0.208-1.095-0.563c-0.28-0.354-0.37-0.756-0.271-1.204C139.885,90.923,140.201,90.489,140.734,90.068z" style="fill:#2C330D;"/></g></g><g><linearGradient gradientTransform="matrix(0.8525 -0.5227 -0.5227 -0.8525 -84.8822 23.5413)" gradientUnits="userSpaceOnUse" id="SVGID_2_" x1="155.9834" x2="155.9834" y1="-126.2886" y2="-328.562"><stop offset="0" style="stop-color:#F9AA2D"/><stop offset="1" style="stop-color:#E09115"/></linearGradient><path d="M249.729,46.806l-22.689-8.81c-5.938,7.653-16.396,10.856-25.883,7.171    c-9.49-3.686-15.047-13.108-14.266-22.762l-23.688-9.198c-5.018-1.948-10.712,0.562-12.659,5.578l-10.125,26.074    c0.313-0.016,0.64,0.029,0.949,0.149c1.188,0.46,1.776,1.797,1.315,2.986c-0.461,1.188-1.797,1.776-2.984,1.314    c-0.313-0.122-0.581-0.307-0.801-0.531l-62.25,160.299c-1.949,5.017,0.562,10.712,5.575,12.658l23.69,9.201    c5.938-7.65,16.394-10.855,25.885-7.17c9.492,3.687,15.048,13.109,14.263,22.76l22.691,8.814    c5.014,1.946,10.711-0.566,12.66-5.581L243.689,89.38c-0.371,0.049-0.754,0.017-1.131-0.127c-1.188-0.462-1.776-1.797-1.316-2.986    c0.462-1.187,1.8-1.779,2.984-1.314c0.375,0.145,0.682,0.383,0.924,0.669l10.156-26.154    C257.253,54.451,254.743,48.755,249.729,46.806z M149.996,50.833c-0.462,1.188-1.796,1.774-2.984,1.314    c-1.188-0.46-1.775-1.797-1.313-2.984c0.459-1.186,1.796-1.778,2.983-1.318C149.869,48.31,150.458,49.646,149.996,50.833z     M157.307,53.672c-0.461,1.188-1.795,1.779-2.98,1.314c-1.191-0.46-1.779-1.797-1.317-2.983c0.462-1.188,1.796-1.779,2.985-1.317    C157.182,51.148,157.77,52.486,157.307,53.672z M164.622,56.512c-0.464,1.187-1.8,1.777-2.988,1.315    c-1.187-0.462-1.778-1.797-1.313-2.985c0.461-1.188,1.798-1.778,2.982-1.316C164.491,53.988,165.079,55.325,164.622,56.512z     M171.932,59.352c-0.461,1.186-1.801,1.777-2.988,1.314c-1.186-0.462-1.772-1.8-1.311-2.988c0.456-1.185,1.797-1.773,2.984-1.314    C171.801,56.828,172.395,58.164,171.932,59.352z M179.243,62.191c-0.464,1.187-1.8,1.774-2.981,1.314    c-1.191-0.461-1.783-1.798-1.318-2.985c0.461-1.186,1.795-1.776,2.981-1.314C179.115,59.664,179.705,61.003,179.243,62.191z     M187.256,65.302c-0.462,1.188-1.797,1.776-2.984,1.317c-1.188-0.463-1.776-1.8-1.314-2.988c0.462-1.186,1.797-1.776,2.984-1.314    C187.127,62.778,187.718,64.114,187.256,65.302z M194.568,68.141c-0.463,1.188-1.801,1.777-2.986,1.317    c-1.188-0.463-1.773-1.8-1.313-2.988c0.459-1.185,1.795-1.775,2.982-1.314C194.439,65.617,195.029,66.953,194.568,68.141z     M201.882,70.981c-0.464,1.187-1.801,1.777-2.985,1.316c-1.188-0.463-1.775-1.8-1.314-2.987c0.456-1.185,1.794-1.775,2.984-1.317    C201.752,68.457,202.343,69.794,201.882,70.981z M209.191,73.818c-0.461,1.188-1.797,1.779-2.984,1.317    c-1.189-0.461-1.775-1.8-1.316-2.985c0.463-1.188,1.797-1.775,2.987-1.314C209.064,71.294,209.652,72.632,209.191,73.818z     M216.503,76.66c-0.459,1.186-1.798,1.776-2.985,1.317c-1.188-0.463-1.779-1.8-1.313-2.988c0.46-1.186,1.795-1.773,2.982-1.313    C216.375,74.134,216.963,75.474,216.503,76.66z M223.814,79.499c-0.461,1.186-1.801,1.777-2.983,1.313    c-1.188-0.458-1.779-1.794-1.317-2.982c0.461-1.188,1.801-1.777,2.985-1.315C223.688,76.975,224.277,78.311,223.814,79.499z     M230.921,82.26c-0.459,1.185-1.796,1.775-2.985,1.313c-1.185-0.462-1.776-1.797-1.314-2.982c0.461-1.189,1.798-1.78,2.988-1.318    C230.793,79.734,231.382,81.072,230.921,82.26z M238.232,85.097c-0.463,1.189-1.795,1.776-2.986,1.315    c-1.186-0.459-1.775-1.796-1.314-2.984c0.463-1.188,1.799-1.778,2.984-1.314C238.105,82.575,238.693,83.909,238.232,85.097z" style="fill:url(#SVGID_2_);"/><path d="M129.691,220.33c-9.49-3.688-19.946-0.48-25.884,7.173    l-23.69-9.201c-1.391-0.54-2.58-1.377-3.545-2.399c0.924,2.58,2.91,4.771,5.651,5.834l23.69,9.201    c5.938-7.65,16.394-10.855,25.885-7.17c4.082,1.584,7.431,4.233,9.864,7.504C139.262,226.436,135.126,222.439,129.691,220.33z     M242.561,89.253c-0.879-0.34-1.426-1.16-1.469-2.04l-61.785,159.114c-1.949,5.014-7.646,7.524-12.66,5.577l-20.547-7.98    c0.032,0.865,0.029,1.73-0.039,2.604l22.692,8.814c5.015,1.946,10.711-0.566,12.66-5.581L243.689,89.38    C243.318,89.429,242.936,89.397,242.561,89.253z M241.404,85.947c0.562-0.967,1.752-1.413,2.822-0.995    c0.375,0.145,0.682,0.383,0.924,0.669l10.156-26.154c1.405-3.623,0.478-7.596-2.033-10.261c0.77,2.141,0.81,4.552-0.073,6.824    l-10.157,26.155L241.404,85.947z" style="opacity:0.2;fill:#2C2C2C;enable-background:new    ;"/><linearGradient gradientTransform="matrix(0.8525 -0.5227 -0.5227 -0.8525 -84.8822 23.5413)" gradientUnits="userSpaceOnUse" id="SVGID_3_" x1="80.9248" x2="218.0967" y1="-233.8164" y2="-233.8164"><stop offset="0" style="stop-color:#FEE587"/><stop offset="1" style="stop-color:#F2D972"/></linearGradient><path d="M213.413,94.707c2.507,0.974,3.761,3.823,2.784,6.331l-42.948,110.614    c-0.974,2.505-3.823,3.762-6.332,2.785l-50.747-19.705c-2.508-0.974-3.762-3.822-2.787-6.328l42.953-110.613    c0.973-2.508,3.822-3.762,6.329-2.789L213.413,94.707z" style="fill:url(#SVGID_3_);"/><g style="enable-background:new    ;"><path d="M147.942,172.696l-1.834,4.994l15.775,5.791c0.91,0.334,1.507,0.792,1.791,1.374     c0.284,0.583,0.305,1.208,0.06,1.876c-0.25,0.679-0.674,1.149-1.274,1.412c-0.603,0.264-1.352,0.23-2.251-0.1l-15.775-5.791     l-1.833,4.994c-0.287,0.781-0.666,1.301-1.136,1.56c-0.471,0.259-0.978,0.288-1.521,0.089c-0.563-0.207-0.934-0.567-1.114-1.083     c-0.182-0.515-0.133-1.147,0.143-1.898l5.342-14.551c0.29-0.791,0.674-1.317,1.15-1.58c0.478-0.262,0.988-0.293,1.531-0.094     c0.544,0.199,0.908,0.555,1.096,1.066C148.278,171.269,148.229,171.915,147.942,172.696z" style="fill:#2C330D;"/><path d="M150.453,166.271c-0.216,0.586-0.572,1.023-1.071,1.313s-1.063,0.317-1.695,0.086     c-0.573-0.21-0.966-0.597-1.18-1.158c-0.214-0.563-0.217-1.127-0.009-1.692c0.199-0.544,0.545-0.966,1.034-1.264     c0.491-0.299,1.058-0.329,1.699-0.094c0.622,0.229,1.033,0.612,1.232,1.152C150.664,165.153,150.66,165.706,150.453,166.271z      M155.394,165.724l11.688,4.29c0.81,0.297,1.349,0.723,1.616,1.275c0.268,0.554,0.288,1.138,0.062,1.754     c-0.227,0.617-0.623,1.04-1.188,1.27c-0.566,0.229-1.243,0.199-2.034-0.091l-11.569-4.247c-0.8-0.294-1.332-0.707-1.595-1.241     c-0.264-0.534-0.282-1.109-0.056-1.727c0.227-0.616,0.615-1.05,1.168-1.303C154.036,165.452,154.673,165.458,155.394,165.724z" style="fill:#2C330D;"/><path d="M171.669,149.641c0.504,0.186,0.984,0.539,1.442,1.063c0.457,0.524,0.828,1.202,1.109,2.034     c0.284,0.832,0.404,1.795,0.362,2.888c-0.043,1.092-0.289,2.249-0.737,3.473c-0.955,2.6-2.429,4.361-4.421,5.286     c-1.993,0.925-4.213,0.938-6.661,0.038c-1.66-0.609-3.005-1.481-4.031-2.617c-1.029-1.136-1.66-2.463-1.893-3.982     c-0.232-1.521-0.025-3.158,0.62-4.915c0.399-1.089,0.92-2.033,1.56-2.83c0.641-0.797,1.317-1.423,2.033-1.877     s1.409-0.748,2.079-0.881c0.672-0.133,1.244-0.112,1.718,0.062c0.484,0.178,0.824,0.516,1.022,1.015     c0.198,0.498,0.199,1.015,0.004,1.549c-0.129,0.35-0.321,0.608-0.579,0.776s-0.632,0.324-1.123,0.471     c-0.938,0.238-1.699,0.568-2.28,0.991c-0.581,0.422-1.029,1.064-1.347,1.928c-0.456,1.244-0.357,2.417,0.296,3.52     c0.655,1.104,1.792,1.952,3.412,2.547c0.761,0.279,1.494,0.438,2.202,0.476c0.709,0.04,1.356-0.044,1.941-0.249     c0.585-0.204,1.09-0.526,1.515-0.966c0.425-0.438,0.751-0.972,0.981-1.599c0.309-0.842,0.388-1.634,0.232-2.372     c-0.154-0.739-0.532-1.481-1.133-2.227c-0.359-0.423-0.613-0.831-0.761-1.224s-0.142-0.804,0.017-1.235     c0.188-0.514,0.532-0.872,1.033-1.073C170.782,149.508,171.244,149.484,171.669,149.641z" style="fill:#2C330D;"/><path d="M179.577,137.852l-7.229,1.561l1.236,3.043l3.214,1.18c0.78,0.286,1.302,0.721,1.565,1.301     c0.263,0.581,0.293,1.148,0.089,1.703c-0.237,0.647-0.631,1.08-1.182,1.298s-1.231,0.178-2.041-0.119l-17.242-6.33     c-0.898-0.33-1.517-0.761-1.854-1.293c-0.337-0.531-0.383-1.131-0.138-1.799c0.238-0.647,0.639-1.084,1.203-1.308     c0.564-0.225,1.261-0.186,2.09,0.119l9.807,3.601l-3.032-6.483c-0.378-0.804-0.618-1.398-0.723-1.787     c-0.104-0.388-0.075-0.803,0.087-1.245c0.193-0.523,0.514-0.901,0.963-1.133c0.448-0.232,0.915-0.259,1.399-0.081     c0.592,0.218,1.174,1.077,1.742,2.581l1.15,2.958l8.101-1.923c0.602-0.141,1.054-0.235,1.356-0.281s0.567-0.027,0.795,0.056     c0.642,0.236,1.081,0.604,1.317,1.104c0.235,0.501,0.245,1.05,0.026,1.646c-0.189,0.514-0.467,0.86-0.835,1.04     C181.074,137.438,180.452,137.636,179.577,137.852z" style="fill:#2C330D;"/><path d="M180.867,117.719l-3.022,8.231c0.922,0.327,1.803,0.433,2.643,0.314     c0.839-0.118,1.55-0.422,2.134-0.913c0.582-0.492,1.012-1.113,1.287-1.862c0.186-0.504,0.297-0.985,0.337-1.442     c0.039-0.458,0.01-0.927-0.089-1.406c-0.099-0.479-0.226-0.934-0.383-1.365c-0.154-0.43-0.374-0.995-0.655-1.692     c-0.1-0.281-0.074-0.622,0.073-1.023c0.158-0.432,0.401-0.739,0.726-0.923c0.325-0.184,0.695-0.199,1.109-0.047     c0.366,0.134,0.738,0.44,1.118,0.917c0.379,0.478,0.684,1.099,0.912,1.865c0.229,0.767,0.324,1.659,0.286,2.677     s-0.273,2.119-0.707,3.3c-0.992,2.703-2.504,4.532-4.536,5.488c-2.032,0.957-4.317,0.97-6.855,0.038     c-1.195-0.439-2.236-1.031-3.122-1.776c-0.887-0.746-1.564-1.606-2.035-2.583c-0.471-0.978-0.71-2.056-0.719-3.238     c-0.009-1.181,0.218-2.403,0.683-3.667c0.604-1.645,1.454-2.933,2.552-3.865c1.1-0.931,2.285-1.497,3.556-1.694     c1.272-0.198,2.456-0.096,3.552,0.307c1.018,0.373,1.565,0.918,1.645,1.636C181.434,115.712,181.271,116.62,180.867,117.719z      M175.549,125.107l2.802-7.63c-1.421-0.404-2.598-0.396-3.531,0.024c-0.934,0.421-1.602,1.182-2.005,2.281     c-0.385,1.048-0.354,2.036,0.096,2.965C173.358,123.677,174.239,124.464,175.549,125.107z" style="fill:#2C330D;"/><path d="M174.668,107.223l0.17-0.462l-2.43-0.892c-0.651-0.239-1.156-0.445-1.514-0.617     c-0.355-0.171-0.639-0.389-0.845-0.65c-0.216-0.266-0.354-0.585-0.413-0.957s-0.021-0.748,0.119-1.128     c0.196-0.535,0.566-0.947,1.109-1.238c0.363-0.192,0.743-0.26,1.143-0.201c0.398,0.058,0.938,0.212,1.619,0.462l2.756,1.012     l0.565-1.541c0.219-0.596,0.521-1.001,0.908-1.215c0.388-0.213,0.792-0.242,1.217-0.086c0.544,0.2,0.842,0.563,0.896,1.09     c0.053,0.526-0.074,1.206-0.379,2.038l-0.289,0.786l7.437,2.73c0.632,0.232,1.127,0.388,1.484,0.466     c0.357,0.079,0.68,0.057,0.965-0.065c0.286-0.122,0.513-0.41,0.679-0.861c0.091-0.247,0.171-0.597,0.241-1.049     c0.071-0.451,0.15-0.796,0.237-1.033c0.124-0.338,0.367-0.596,0.729-0.772c0.362-0.176,0.734-0.193,1.12-0.052     c0.651,0.239,1.015,0.792,1.089,1.659c0.073,0.867-0.144,1.994-0.653,3.382c-0.482,1.315-1.062,2.234-1.734,2.756     c-0.674,0.522-1.425,0.751-2.253,0.686c-0.826-0.064-1.868-0.327-3.123-0.788l-7.762-2.849l-0.204,0.555     c-0.223,0.606-0.531,1.019-0.923,1.235c-0.395,0.218-0.803,0.248-1.229,0.092c-0.425-0.156-0.71-0.45-0.859-0.884     C174.392,108.396,174.435,107.86,174.668,107.223z" style="fill:#2C330D;"/></g></g></g></svg>